PathFileType	4	(X/Y/Z)	C:/Users/opensim2020/Desktop/walking_exp_matlab/subject01_walking07_straight_04.trc																																																																																																																															
DataRate	CameraRate	NumFrames	NumMarkers	Units	OrigDataRate	OrigDataStartFrame	OrigNumFrames																																																																																																																											
100	100	4	43	mm	100	2834	176																																																																																																																											
Frame#	Time	LFHD			RFHD			LBHD			RBHD			C7			T10			CLAV			STRN			RBAK			LSHO			LUPA			LELB			LFRM			LWRA			LWRB			LFIN			RSHO			RUPA			RELB			RFRM			RWRA			RWRB			RFIN			LASI			RASI			LPSI			RPSI			LTHI			LKNE			LTIB			LANK			LHEE			LTOE			RTHI			RKNE			RTIB			RANK			RHEE			RTOE			*39			*40			*41			*42		
		X1	Y1	Z1	X2	Y2	Z2	X3	Y3	Z3	X4	Y4	Z4	X5	Y5	Z5	X6	Y6	Z6	X7	Y7	Z7	X8	Y8	Z8	X9	Y9	Z9	X10	Y10	Z10	X11	Y11	Z11	X12	Y12	Z12	X13	Y13	Z13	X14	Y14	Z14	X15	Y15	Z15	X16	Y16	Z16	X17	Y17	Z17	X18	Y18	Z18	X19	Y19	Z19	X20	Y20	Z20	X21	Y21	Z21	X22	Y22	Z22	X23	Y23	Z23	X24	Y24	Z24	X25	Y25	Z25	X26	Y26	Z26	X27	Y27	Z27	X28	Y28	Z28	X29	Y29	Z29	X30	Y30	Z30	X31	Y31	Z31	X32	Y32	Z32	X33	Y33	Z33	X34	Y34	Z34	X35	Y35	Z35	X36	Y36	Z36	X37	Y37	Z37	X38	Y38	Z38	X39	Y39	Z39	X40	Y40	Z40	X41	Y41	Z41	X42	Y42	Z42	X43	Y43	Z43
																																																																																																																																		
67	0.66	-206.45918	1667.03979	1042.22522	-156.09642	1673.47021	1146.11902	-317.70764	1633.89185	1091.90576	-267.84882	1640.79773	1201.13562	-354.50308	1435.43469	1127.33594	-391.25818	1142.06873	1139.1748	-210.78807	1368.4248	1117.9104	-168.29474	1213.9436	1111.32336	-404.96249	1243.07227	1211.59314	-277.86966	1398.00537	960.15173	-322.77432	1213.80396	878.91882	-354.2323	1068.82678	885.01294	-342.04892	956.39142	860.67841	-295.50296	824.38892	882.23792	-347.85031	833.76727	853.99591	-319.46106	753.25128	849.18494	-263.24182	1397.76965	1272.86328	-294.22925	1194.97278	1380.22327	-271.72672	1071.91309	1387.70129	-217.34009	965.07489	1420.0481	-112.06538	870.11798	1402.78223	-154.33731	861.50378	1441.55859	-100.27069	794.94647	1441.56482	-223.95688	942.40497	1018.07489	-213.73302	933.7066	1235.26001	-407.16608	946.32544	1076.41968	-399.60703	948.69122	1220.87341	-157.98041	633.53967	942.46997	-130.80135	500.85538	953.06641	-201.80246	324.08008	948.16949	-247.59427	110.39505	997.83832	-280.93695	81.26695	1060.84656	-119.75511	56.76057	960.02075	-289.59613	600.76642	1283.97534	-298.2999	442.39801	1256.42334	-367.99484	279.93951	1265.04114	-419.29657	80.35998	1216.18616	-474.04303	45.99489	1169.49036	-282.22656	36.43272	1210.83765	-172.26984	1707.64856	1126.35059	-1973.06592	1023.56921	3101.94824	-2012.57837	1022.05328	3140.63525	NaN	NaN	NaN
68	0.67	-197.44115	1666.24963	1040.88379	-146.74644	1672.91943	1144.63306	-308.48666	1633.15698	1090.84314	-258.49893	1640.40918	1200.08606	-345.09363	1435.1272	1127.54724	-382.81226	1141.80164	1139.09241	-201.58276	1367.58838	1117.07971	-159.4059	1213.05896	1110.7627	-395.64163	1242.78625	1211.60645	-268.93753	1397.05334	959.4541	-315.68384	1213.08533	878.62457	-348.55435	1068.46387	884.94916	-337.87198	955.96826	860.70087	-292.68396	823.61395	882.06018	-345.04257	833.37256	854.04309	-317.57764	752.47571	849.38367	-253.60971	1397.32935	1272.10938	-283.60315	1194.9032	1379.9292	-260.46619	1071.82837	1387.88757	-204.67943	965.4527	1420.07471	-98.07001	872.17377	1402.8457	-140.32153	862.95477	1441.71033	-85.38738	797.1001	1441.74023	-215.28529	941.75446	1018.10822	-205.60963	932.78229	1235.37329	-398.59183	945.93207	1076.14795	-391.35168	948.40668	1220.6228	-149.44545	633.16022	942.37866	-122.33483	500.32181	953.0069	-184.69347	320.60278	946.74188	-217.3119	103.65182	994.56732	-249.71608	72.93599	1057.29236	-86.55786	56.32708	957.92303	-284.7558	600.43237	1284.16492	-295.45172	442.03265	1256.56555	-366.48044	280.30136	1265.01929	-418.9386	80.9063	1216.11279	-474.1268	46.96334	1169.33911	-282.18945	36.39374	1210.8219	-163.09966	1706.9314	1124.8075	-1973.16638	1023.59369	3101.96362	-2012.57617	1021.9198	3140.68701	NaN	NaN	NaN
69	0.68	-188.33429	1665.61438	1039.33154	-137.46933	1672.21228	1143.06433	-299.43286	1632.4469	1089.76648	-248.93025	1639.65417	1198.62708	-335.76846	1434.3302	1126.27808	-374.00745	1141.32581	1138.76416	-192.30603	1366.72998	1116.19165	-150.43678	1212.06226	1110.19019	-386.28595	1242.40137	1211.40747	-259.96268	1396.00146	958.63208	-308.34573	1212.36377	878.14612	-342.80258	1068.10693	885.14825	-333.35883	955.50598	860.66748	-289.35361	822.8562	881.8717	-341.93326	833.00568	854.25665	-315.24704	751.76929	849.48328	-243.82925	1396.85229	1271.24841	-272.95776	1194.7218	1379.42761	-249.29146	1071.65417	1387.87903	-192.20674	965.86719	1420.14648	-84.54828	873.93005	1402.76648	-126.53881	864.19849	1441.64246	-70.74008	799.09027	1441.73938	-206.36964	941.13824	1017.99841	-197.38475	931.81738	1235.44165	-389.90509	945.39728	1075.72559	-383.02603	947.97693	1220.05127	-141.4771	632.2926	942.1123	-114.63576	499.55222	952.85706	-167.96608	317.3269	945.29315	-187.06741	97.9927	991.40814	-218.64052	66.01167	1053.94849	-53.5414	56.92853	956.2713	-280.00714	600.27271	1284.08362	-292.64371	441.91745	1256.67444	-364.90485	280.73239	1264.98792	-418.59656	81.60788	1216.05688	-473.65921	48.0713	1169.3584	-282.13223	36.34995	1210.90967	-153.74422	1706.40649	1123.27478	-1973.18237	1023.422	3101.8374	-2012.6106	1022.00812	3140.67676	NaN	NaN	NaN
70	0.69	-179.36002	1664.77661	1037.79565	-128.11813	1671.52454	1141.39978	-290.10577	1631.45874	1088.51489	-239.48415	1638.96362	1197.21423	-326.38895	1433.62805	1125.50671	-365.15707	1140.76721	1138.19104	-182.99922	1365.73804	1115.16028	-141.42349	1211.0481	1109.44751	-376.96344	1241.97839	1211.03662	-250.93259	1394.93225	957.74182	-301.04166	1211.59619	877.61792	-336.85626	1067.70996	884.98462	-328.57507	955.0188	860.58398	-285.96558	821.92316	881.77527	-338.31384	832.58783	854.2605	-312.52368	751.16577	849.45343	-234.06693	1396.28955	1270.13879	-262.32175	1194.57202	1378.94177	-238.2614	1071.44495	1387.78381	-180.00623	966.19409	1420.08533	-71.2624	875.61975	1402.56543	-113.06363	865.32666	1441.53833	-56.39701	801.05896	1441.66541	-196.93849	940.51202	1017.61163	-189.26549	930.94629	1235.40662	-381.13184	944.77271	1075.18481	-374.58337	947.5036	1219.37622	-134.3555	630.88293	941.89966	-106.81253	498.10757	952.59015	-151.42822	314.23309	943.67041	-157.26083	93.29971	988.22546	-188.10179	60.02906	1050.37903	-20.94765	58.74398	954.92438	-275.15277	600.12976	1283.99524	-289.75293	441.78754	1256.72656	-363.16586	281.25015	1264.94971	-418.16846	82.37292	1216.05347	-473.60318	49.33739	1169.33398	-282.09506	36.30843	1210.93164	-144.54283	1705.52271	1121.56567	-1973.14124	1023.43274	3101.9021	-2012.61475	1022.04376	3140.73193	NaN	NaN	NaN
